<svg version="1.1" xmlns="http://www.w3.org/2000/svg" xmlns:xlink="http://www.w3.org/1999/xlink" x="0px" y="0px"
	 viewBox="0 0 1920 1920" xml:space="preserve">
<style type="text/css">
	.st0{fill:#FFFFFF;}
</style>
<g id="face">

		<path class="st0" d="M1063.7,966.1c-3.1-23.9-7.4-55.3-6.8-65.1c0.8-15.2-12.7-11-16.9-21.1c-4.2-10.1-0.4-39.5-54.7-23.7
			c-41,12-18.6,0.8-65.9,3.4c-47.3,2.5-60.1,49.8-57.6,54.1c2.5,4.2,9.3,21.1,0,28.7c-2.7,2.2-4.6,7.5-5.9,13.9l3.3,36.9
			c0,4.8,0,9.6,0,14.3c0,0.3,0,0.6,0,0.9c0.1,2.3,0.1,5,0.1,8.4c0,3.7,0,7.2-0.1,10.6c0.2,20.2,1.2,37.8,5.6,51.5
			c16.8,51.1,68.9,72.3,93,72.3c11.7,0,32.9-4.8,51.9-15.4c16.1-9,36.8-25.4,43.3-52.7C1059.5,1055.4,1063.4,1013,1063.7,966.1z
			 M951.8,1029.7c1.6,2,7.1,6.5,13,6.5c0,0,0,0,0,0c4.1,0,7.8-2.1,11.2-6.5l1.5-1.9h13.6c2.8,0,5,2.2,5,5s-2.2,5-5,5h-8.9
			c-6.3,6.8-12.9,8.3-17.4,8.3c0,0,0,0,0,0c-8,0-15.2-4.5-19.1-8.3H935c-2.8,0-5-2.2-5-5s2.2-5,5-5h15.3L951.8,1029.7z
			 M1015.7,989.9c-5.5,0-10-4.5-10-10c0-5.5,4.5-10,10-10c5.5,0,10,4.5,10,10C1025.7,985.4,1021.2,989.9,1015.7,989.9z
			 M1016.3,1065.5c0,2.1-1.7,3.8-3.8,3.8c-2.1,0-3.8-1.7-3.8-3.8s1.7-3.8,3.8-3.8C1014.6,1061.7,1016.3,1063.4,1016.3,1065.5z
			 M1006.3,1051.2c2.1,0,3.8,1.7,3.8,3.8c0,2.1-1.7,3.8-3.8,3.8c-2.1,0-3.8-1.7-3.8-3.8C1002.5,1052.9,1004.2,1051.2,1006.3,1051.2z
			 M1003.6,1098.2c2,0,3.6,1.7,3.6,3.8s-1.6,3.8-3.6,3.8c-2,0-3.6-1.7-3.6-3.8S1001.7,1098.2,1003.6,1098.2z M998.2,1048.6
			c-2.1,0-3.8-1.7-3.8-3.8s1.7-3.8,3.8-3.8s3.8,1.7,3.8,3.8S1000.3,1048.6,998.2,1048.6z M998.3,1055c0,2.1-1.7,3.8-3.8,3.8
			s-3.8-1.7-3.8-3.8c0-2.1,1.7-3.8,3.8-3.8S998.3,1052.9,998.3,1055z M983,1044.8c0-2.1,1.7-3.8,3.8-3.8c2.1,0,3.8,1.7,3.8,3.8
			s-1.7,3.8-3.8,3.8C984.7,1048.6,983,1046.9,983,1044.8z M986.4,1055c0,2.1-1.7,3.8-3.8,3.8c-2.1,0-3.8-1.7-3.8-3.8
			c0-2.1,1.7-3.8,3.8-3.8C984.7,1051.2,986.4,1052.9,986.4,1055z M974.6,1055c0,2.1-1.7,3.8-3.8,3.8c-2.1,0-3.8-1.7-3.8-3.8
			c0-2.1,1.7-3.8,3.8-3.8C972.9,1051.2,974.6,1052.9,974.6,1055z M962.7,1055c0,2.1-1.7,3.8-3.8,3.8s-3.8-1.7-3.8-3.8
			c0-2.1,1.7-3.8,3.8-3.8S962.7,1052.9,962.7,1055z M935.2,1051.2c2.1,0,3.8,1.7,3.8,3.8c0,2.1-1.7,3.8-3.8,3.8
			c-2.1,0-3.8-1.7-3.8-3.8C931.4,1052.9,933.1,1051.2,935.2,1051.2z M931,1048c-2.1,0-3.8-1.7-3.8-3.8c0-2.1,1.7-3.8,3.8-3.8
			c2.1,0,3.8,1.7,3.8,3.8C934.8,1046.3,933.1,1048,931,1048z M938.6,1044.2c0-2.1,1.7-3.8,3.8-3.8s3.8,1.7,3.8,3.8
			c0,2.1-1.7,3.8-3.8,3.8S938.6,1046.3,938.6,1044.2z M947,1051.2c2.1,0,3.8,1.7,3.8,3.8c0,2.1-1.7,3.8-3.8,3.8
			c-2.1,0-3.8-1.7-3.8-3.8C943.2,1052.9,944.9,1051.2,947,1051.2z M864,1027.2c0-2.1,1.7-3.8,3.8-3.8c2.1,0,3.8,1.7,3.8,3.8
			s-1.7,3.8-3.8,3.8C865.7,1031,864,1029.3,864,1027.2z M871.6,1050.5c-2.1,0-3.8-1.7-3.8-3.8c0-2.1,1.7-3.8,3.8-3.8
			c2.1,0,3.8,1.7,3.8,3.8C875.4,1048.8,873.7,1050.5,871.6,1050.5z M875.4,1074.5c0-2.1,1.7-3.8,3.8-3.8c2.1,0,3.8,1.7,3.8,3.8
			c0,2.1-1.7,3.8-3.8,3.8C877.1,1078.3,875.4,1076.6,875.4,1074.5z M883,1097.8c-2.1,0-3.8-1.7-3.8-3.8s1.7-3.8,3.8-3.8
			c2.1,0,3.8,1.7,3.8,3.8S885.1,1097.8,883,1097.8z M887.7,967c-0.2,2.6-2.4,4.6-5,4.6c-2.8,0-5-2.2-5-5c0-8.2,14.4-17.3,35-17.3
			s35,9.1,35,17.3c0,2.8-2.2,5-5,5c-2.6,0-4.8-2-5-4.6c-1.1-1.6-9.6-7.7-25-7.7S888.7,965.4,887.7,967z M923.3,1058.8
			c-2.1,0-3.8-1.7-3.8-3.8c0-2.1,1.7-3.8,3.8-3.8s3.8,1.7,3.8,3.8C927.1,1057.1,925.4,1058.8,923.3,1058.8z M925.5,1103
			c0,2.1-1.7,3.8-3.8,3.8c-2.1,0-3.8-1.7-3.8-3.8s1.7-3.8,3.8-3.8C923.8,1099.2,925.5,1100.9,925.5,1103z M898.7,1088
			c-2.1,0-3.8-1.7-3.8-3.8s1.7-3.8,3.8-3.8s3.8,1.7,3.8,3.8S900.8,1088,898.7,1088z M913.9,969.9c5.5,0,10,4.5,10,10
			c0,5.5-4.5,10-10,10s-10-4.5-10-10C903.9,974.3,908.4,969.9,913.9,969.9z M913.3,1069.3c-2.1,0-3.8-1.7-3.8-3.8s1.7-3.8,3.8-3.8
			s3.8,1.7,3.8,3.8S915.4,1069.3,913.3,1069.3z M914.1,1103c0,2.1-1.7,3.8-3.8,3.8s-3.8-1.7-3.8-3.8s1.7-3.8,3.8-3.8
			S914.1,1100.9,914.1,1103z M910.3,1125.7c-2.1,0-3.8-1.7-3.8-3.8c0-2.1,1.7-3.8,3.8-3.8s3.8,1.7,3.8,3.8
			C914.1,1124,912.4,1125.7,910.3,1125.7z M912.2,1112.4c0-2.1,1.7-3.8,3.8-3.8c2.1,0,3.8,1.7,3.8,3.8c0,2.1-1.7,3.8-3.8,3.8
			C913.9,1116.2,912.2,1114.5,912.2,1112.4z M919.8,1135.1c-2.1,0-3.8-1.7-3.8-3.8c0-2.1,1.7-3.8,3.8-3.8c2.1,0,3.8,1.7,3.8,3.8
			C923.6,1133.4,921.9,1135.1,919.8,1135.1z M921.7,1125.7c-2.1,0-3.8-1.7-3.8-3.8c0-2.1,1.7-3.8,3.8-3.8c2.1,0,3.8,1.7,3.8,3.8
			C925.5,1124,923.8,1125.7,921.7,1125.7z M923.6,1112.4c0-2.1,1.7-3.8,3.8-3.8c2.1,0,3.8,1.7,3.8,3.8c0,2.1-1.7,3.8-3.8,3.8
			C925.3,1116.2,923.6,1114.5,923.6,1112.4z M931.2,1135.1c-2.1,0-3.8-1.7-3.8-3.8c0-2.1,1.7-3.8,3.8-3.8s3.8,1.7,3.8,3.8
			C935,1133.4,933.3,1135.1,931.2,1135.1z M943.2,1138.9c-2.1,0-3.8-1.7-3.8-3.8c0-2.1,1.7-3.8,3.8-3.8c2.1,0,3.8,1.7,3.8,3.8
			C947,1137.2,945.3,1138.9,943.2,1138.9z M945.2,1097.8c-2.1,0-3.8-1.7-3.8-3.8s1.7-3.8,3.8-3.8c2.1,0,3.8,1.7,3.8,3.8
			S947.3,1097.8,945.2,1097.8z M956.6,1142.7c-2.1,0-3.8-1.7-3.8-3.8s1.7-3.8,3.8-3.8c2.1,0,3.8,1.7,3.8,3.8
			S958.7,1142.7,956.6,1142.7z M956.6,1131.3c-2.1,0-3.8-1.7-3.8-3.8c0-2.1,1.7-3.8,3.8-3.8c2.1,0,3.8,1.7,3.8,3.8
			C960.4,1129.6,958.7,1131.3,956.6,1131.3z M956.6,1108c-2.1,0-3.8-1.7-3.8-3.8s1.7-3.8,3.8-3.8c2.1,0,3.8,1.7,3.8,3.8
			S958.7,1108,956.6,1108z M956.6,1097.8c-2.1,0-3.8-1.7-3.8-3.8s1.7-3.8,3.8-3.8c2.1,0,3.8,1.7,3.8,3.8S958.7,1097.8,956.6,1097.8z
			 M932.1,1076.2c-2.5-1.2-3.5-4.2-2.3-6.7c1.2-2.5,4.2-3.5,6.7-2.3c0.4,0.2,24.8,11.4,54.6-0.2c2.6-1,5.5,0.3,6.5,2.9
			c1,2.6-0.3,5.5-2.9,6.5c-11.5,4.4-22.2,5.9-31.5,5.9C945.1,1082.3,932.8,1076.6,932.1,1076.2z M967.3,1142.7
			c-2.1,0-3.8-1.7-3.8-3.8s1.7-3.8,3.8-3.8c2.1,0,3.8,1.7,3.8,3.8S969.4,1142.7,967.3,1142.7z M967.3,1131.3c-2.1,0-3.8-1.7-3.8-3.8
			c0-2.1,1.7-3.8,3.8-3.8c2.1,0,3.8,1.7,3.8,3.8C971.1,1129.6,969.4,1131.3,967.3,1131.3z M967.3,1108c-2.1,0-3.8-1.7-3.8-3.8
			s1.7-3.8,3.8-3.8c2.1,0,3.8,1.7,3.8,3.8S969.4,1108,967.3,1108z M967.3,1097.8c-2.1,0-3.8-1.7-3.8-3.8s1.7-3.8,3.8-3.8
			c2.1,0,3.8,1.7,3.8,3.8S969.4,1097.8,967.3,1097.8z M974.9,1094c0-2.1,1.7-3.8,3.8-3.8c2.1,0,3.8,1.7,3.8,3.8s-1.7,3.8-3.8,3.8
			C976.6,1097.8,974.9,1096.1,974.9,1094z M981.5,1138.9c-2.1,0-3.8-1.7-3.8-3.8c0-2.1,1.7-3.8,3.8-3.8c2.1,0,3.8,1.7,3.8,3.8
			C985.3,1137.2,983.6,1138.9,981.5,1138.9z M994.7,1134.1c-2,0-3.6-1.7-3.6-3.8c0-2.1,1.6-3.8,3.6-3.8c2,0,3.6,1.7,3.6,3.8
			C998.3,1132.4,996.7,1134.1,994.7,1134.1z M994.7,1111.4c0-2.1,1.6-3.8,3.6-3.8s3.6,1.7,3.6,3.8c0,2.1-1.6,3.8-3.6,3.8
			S994.7,1113.5,994.7,1111.4z M1000.1,1120.9c0-2.1,1.6-3.8,3.6-3.8c2,0,3.6,1.7,3.6,3.8c0,2.1-1.6,3.8-3.6,3.8
			C1001.7,1124.7,1000.1,1123,1000.1,1120.9z M1005.4,1134.1c-2,0-3.6-1.7-3.6-3.8c0-2.1,1.6-3.8,3.6-3.8c2,0,3.6,1.7,3.6,3.8
			C1009,1132.4,1007.4,1134.1,1005.4,1134.1z M1009,1115.2c-2,0-3.6-1.7-3.6-3.8c0-2.1,1.6-3.8,3.6-3.8c2,0,3.6,1.7,3.6,3.8
			C1012.5,1113.5,1011,1115.2,1009,1115.2z M1014.3,1124.7c-2,0-3.6-1.7-3.6-3.8c0-2.1,1.6-3.8,3.6-3.8c2,0,3.6,1.7,3.6,3.8
			C1017.9,1123,1016.3,1124.7,1014.3,1124.7z M1014.3,1105.8c-2,0-3.6-1.7-3.6-3.8s1.6-3.8,3.6-3.8c2,0,3.6,1.7,3.6,3.8
			S1016.3,1105.8,1014.3,1105.8z M1025.4,1088c-2.1,0-3.8-1.7-3.8-3.8s1.7-3.8,3.8-3.8c2.1,0,3.8,1.7,3.8,3.8
			S1027.5,1088,1025.4,1088z M1014.4,959.3c-15.4,0-24,6.1-25,7.7c-0.2,2.6-2.4,4.6-5,4.6c-2.8,0-5-2.2-5-5c0-8.2,14.4-17.3,35-17.3
			s35,9.1,35,17.3c0,2.8-2.2,5-5,5c-2.6,0-4.8-2-5-4.6C1038.4,965.4,1029.8,959.3,1014.4,959.3z M1041,1097.8
			c-2.1,0-3.8-1.7-3.8-3.8s1.7-3.8,3.8-3.8c2.1,0,3.8,1.7,3.8,3.8S1043.1,1097.8,1041,1097.8z M1044.8,1078.3
			c-2.1,0-3.8-1.7-3.8-3.8c0-2.1,1.7-3.8,3.8-3.8c2.1,0,3.8,1.7,3.8,3.8C1048.6,1076.6,1046.9,1078.3,1044.8,1078.3z M1048.6,1056.4
			c-2.1,0-3.8-1.7-3.8-3.8c0-2.1,1.7-3.8,3.8-3.8s3.8,1.7,3.8,3.8C1052.4,1054.7,1050.7,1056.4,1048.6,1056.4z M1048.6,1033.1
			c0-2.1,1.7-3.8,3.8-3.8c2.1,0,3.8,1.7,3.8,3.8s-1.7,3.8-3.8,3.8C1050.3,1036.9,1048.6,1035.2,1048.6,1033.1z"/>
		<path class="st0" d="M849.1,1008.6c0-1.3-0.1-2.4-0.2-3.3c-2.5,2.4-6.9,11.3-6.9,23.5c0,10.4,2.8,11.7,5.7,11.9
			c0.9-2.4,1.2-7.9,1.3-13.8C849.1,1021,849.1,1014.9,849.1,1008.6z"/>
		<path class="st0" d="M1070,1038.8L1070,1038.8c0,0.4-0.1,0.7-0.1,0.9c0.1,0,0.2,0,0.3,0l0.3,0c2.3,0.2,3.8-0.2,4.8-1.1
			c1-0.9,2.7-3.6,2.7-10.9c0-10-3-17.3-5.4-21.1C1071.9,1017.9,1071.1,1028.7,1070,1038.8z"/>
		<path d="M1077.1,996.8c-0.1-14.1-3-28.3-2.9-42.5c0.1-16.4,7.3-32.7,4.5-48.2c-11.9-63.9-50-121.3-116.3-121.3
			c-36.8,0-66.9,29-86.1,48.8c-20.2,20.9-30.7,39.1-35.8,63.2c-4.2,20.1,2.9,38,3.2,48.1c0.3,11.5-2.5,41.5-1.9,53.6
			c-5.3,5.4-9.7,16.4-9.7,30.3c0,14.8,5.6,22,17,22c0.3,0,0.5,0,0.7,0c0.8,11.6,2.4,22.1,5.4,31.2c10.2,31,31.4,49.9,47.4,60.4
			c21.3,13.9,42.5,18.9,55.1,18.9c13.3,0,36.1-5.2,56.8-16.7c17.9-10,40.8-28.3,48.1-59.2c2.4-10.2,4.5-22.2,6.1-35.7
			c0.3,0,0.5,0,0.8,0.1l0.2,0c0.4,0,1,0.1,1.8,0.1c2.6,0,6.9-0.5,10.5-3.8c3.9-3.7,5.8-9.6,5.8-18.2
			C1087.9,1014.6,1083.3,1002.3,1077.1,996.8z M1075.2,1038.6c-1,0.9-2.4,1.3-4.8,1.1l-0.3,0c-0.1,0-0.2,0-0.3,0
			c0-0.3,0-0.6,0.1-0.9l0,0c1-10.1,1.9-20.8,2.5-32.1c2.5,3.8,5.4,11.1,5.4,21.1C1077.9,1035,1076.2,1037.7,1075.2,1038.6z
			 M1009.7,1135.7c-19,10.6-40.3,15.4-51.9,15.4c-24.1,0-76.2-21.2-93-72.3c-4.5-13.6-5.5-31.2-5.6-51.5c0.1-3.3,0.1-6.9,0.1-10.6
			c0-3.4,0-6.2-0.1-8.4c0-0.3,0-0.6,0-0.9c0-4.7,0-9.4,0-14.3l-3.3-36.9c1.3-6.4,3.2-11.6,5.9-13.9c9.3-7.6,2.5-24.5,0-28.7
			c-2.5-4.2,10.3-51.5,57.6-54.1c47.3-2.5,24.9,8.6,65.9-3.4c54.4-15.9,50.5,13.5,54.7,23.7c4.2,10.1,17.7,5.9,16.9,21.1
			c-0.5,9.8,3.7,41.2,6.8,65.1c-0.3,46.9-4.2,89.2-10.8,116.9C1046.4,1110.3,1025.8,1126.8,1009.7,1135.7z M847.8,1040.7
			c-2.9-0.2-5.7-1.6-5.7-11.9c0-12.2,4.4-21.1,6.9-23.5c0.1,0.9,0.1,2,0.2,3.3c0,6.3-0.1,12.4,0,18.4
			C849,1032.8,848.7,1038.3,847.8,1040.7z"/>
		<circle cx="913.9" cy="979.9" r="10"/>
		<circle cx="1015.7" cy="979.9" r="10"/>
		<path d="M930,1032.8c0,2.8,2.2,5,5,5h10.7c4,3.9,11.2,8.3,19.1,8.3c0,0,0,0,0,0c4.6,0,11.2-1.5,17.4-8.3h8.9c2.8,0,5-2.2,5-5
			s-2.2-5-5-5h-13.6l-1.5,1.9c-3.5,4.3-7.1,6.5-11.2,6.5c0,0,0,0,0,0c-5.9,0-11.4-4.4-13-6.5l-1.5-1.9H935
			C932.3,1027.8,930,1030,930,1032.8z"/>
		<path d="M917.9,1103c0,2.1,1.7,3.8,3.8,3.8c2.1,0,3.8-1.7,3.8-3.8s-1.7-3.8-3.8-3.8C919.6,1099.2,917.9,1100.9,917.9,1103z"/>
		<path d="M910.3,1099.2c-2.1,0-3.8,1.7-3.8,3.8s1.7,3.8,3.8,3.8s3.8-1.7,3.8-3.8S912.4,1099.2,910.3,1099.2z"/>
		<path d="M931.2,1112.4c0-2.1-1.7-3.8-3.8-3.8c-2.1,0-3.8,1.7-3.8,3.8c0,2.1,1.7,3.8,3.8,3.8
			C929.5,1116.2,931.2,1114.5,931.2,1112.4z"/>
		<path d="M919.8,1112.4c0-2.1-1.7-3.8-3.8-3.8c-2.1,0-3.8,1.7-3.8,3.8c0,2.1,1.7,3.8,3.8,3.8
			C918.1,1116.2,919.8,1114.5,919.8,1112.4z"/>
		<path d="M921.7,1118.1c-2.1,0-3.8,1.7-3.8,3.8c0,2.1,1.7,3.8,3.8,3.8c2.1,0,3.8-1.7,3.8-3.8
			C925.5,1119.8,923.8,1118.1,921.7,1118.1z"/>
		<path d="M910.3,1118.1c-2.1,0-3.8,1.7-3.8,3.8c0,2.1,1.7,3.8,3.8,3.8s3.8-1.7,3.8-3.8C914.1,1119.8,912.4,1118.1,910.3,1118.1z"/>
		<path d="M931.2,1127.5c-2.1,0-3.8,1.7-3.8,3.8c0,2.1,1.7,3.8,3.8,3.8s3.8-1.7,3.8-3.8C935,1129.2,933.3,1127.5,931.2,1127.5z"/>
		<path d="M943.2,1131.3c-2.1,0-3.8,1.7-3.8,3.8c0,2.1,1.7,3.8,3.8,3.8c2.1,0,3.8-1.7,3.8-3.8C947,1133,945.3,1131.3,943.2,1131.3z"
			/>
		<path d="M981.5,1131.3c-2.1,0-3.8,1.7-3.8,3.8c0,2.1,1.7,3.8,3.8,3.8c2.1,0,3.8-1.7,3.8-3.8C985.3,1133,983.6,1131.3,981.5,1131.3
			z"/>
		<path d="M919.8,1127.5c-2.1,0-3.8,1.7-3.8,3.8c0,2.1,1.7,3.8,3.8,3.8c2.1,0,3.8-1.7,3.8-3.8
			C923.6,1129.2,921.9,1127.5,919.8,1127.5z"/>
		<path d="M1000.1,1102c0,2.1,1.6,3.8,3.6,3.8c2,0,3.6-1.7,3.6-3.8s-1.6-3.8-3.6-3.8C1001.7,1098.2,1000.1,1099.9,1000.1,1102z"/>
		<path d="M1014.3,1098.2c-2,0-3.6,1.7-3.6,3.8s1.6,3.8,3.6,3.8c2,0,3.6-1.7,3.6-3.8S1016.3,1098.2,1014.3,1098.2z"/>
		<path d="M1001.9,1111.4c0-2.1-1.6-3.8-3.6-3.8s-3.6,1.7-3.6,3.8c0,2.1,1.6,3.8,3.6,3.8S1001.9,1113.5,1001.9,1111.4z"/>
		<path d="M1012.5,1111.4c0-2.1-1.6-3.8-3.6-3.8c-2,0-3.6,1.7-3.6,3.8c0,2.1,1.6,3.8,3.6,3.8
			C1011,1115.2,1012.5,1113.5,1012.5,1111.4z"/>
		<path d="M1007.2,1120.9c0-2.1-1.6-3.8-3.6-3.8c-2,0-3.6,1.7-3.6,3.8c0,2.1,1.6,3.8,3.6,3.8
			C1005.6,1124.7,1007.2,1123,1007.2,1120.9z"/>
		<path d="M1014.3,1117.1c-2,0-3.6,1.7-3.6,3.8c0,2.1,1.6,3.8,3.6,3.8c2,0,3.6-1.7,3.6-3.8
			C1017.9,1118.8,1016.3,1117.1,1014.3,1117.1z"/>
		<path d="M994.7,1126.5c-2,0-3.6,1.7-3.6,3.8c0,2.1,1.6,3.8,3.6,3.8c2,0,3.6-1.7,3.6-3.8C998.3,1128.2,996.7,1126.5,994.7,1126.5z"
			/>
		<ellipse cx="1005.4" cy="1130.3" rx="3.6" ry="3.8"/>
		<path d="M917.1,1065.5c0-2.1-1.7-3.8-3.8-3.8s-3.8,1.7-3.8,3.8s1.7,3.8,3.8,3.8S917.1,1067.6,917.1,1065.5z"/>
		<path d="M898.7,1080.4c-2.1,0-3.8,1.7-3.8,3.8s1.7,3.8,3.8,3.8s3.8-1.7,3.8-3.8S900.8,1080.4,898.7,1080.4z"/>
		<path d="M1025.4,1080.4c-2.1,0-3.8,1.7-3.8,3.8s1.7,3.8,3.8,3.8c2.1,0,3.8-1.7,3.8-3.8S1027.5,1080.4,1025.4,1080.4z"/>
		<path d="M1044.8,1070.7c-2.1,0-3.8,1.7-3.8,3.8c0,2.1,1.7,3.8,3.8,3.8c2.1,0,3.8-1.7,3.8-3.8
			C1048.6,1072.4,1046.9,1070.7,1044.8,1070.7z"/>
		<path d="M883,1074.5c0-2.1-1.7-3.8-3.8-3.8c-2.1,0-3.8,1.7-3.8,3.8c0,2.1,1.7,3.8,3.8,3.8C881.3,1078.3,883,1076.6,883,1074.5z"/>
		<path d="M1041,1090.2c-2.1,0-3.8,1.7-3.8,3.8s1.7,3.8,3.8,3.8c2.1,0,3.8-1.7,3.8-3.8S1043.1,1090.2,1041,1090.2z"/>
		<path d="M1056.2,1033.1c0-2.1-1.7-3.8-3.8-3.8c-2.1,0-3.8,1.7-3.8,3.8s1.7,3.8,3.8,3.8C1054.5,1036.9,1056.2,1035.2,1056.2,1033.1
			z"/>
		<path d="M1048.6,1048.8c-2.1,0-3.8,1.7-3.8,3.8c0,2.1,1.7,3.8,3.8,3.8s3.8-1.7,3.8-3.8C1052.4,1050.5,1050.7,1048.8,1048.6,1048.8
			z"/>
		<path d="M883,1090.2c-2.1,0-3.8,1.7-3.8,3.8s1.7,3.8,3.8,3.8c2.1,0,3.8-1.7,3.8-3.8S885.1,1090.2,883,1090.2z"/>
		<path d="M871.6,1027.2c0-2.1-1.7-3.8-3.8-3.8c-2.1,0-3.8,1.7-3.8,3.8s1.7,3.8,3.8,3.8C869.9,1031,871.6,1029.3,871.6,1027.2z"/>
		<path d="M871.6,1042.9c-2.1,0-3.8,1.7-3.8,3.8c0,2.1,1.7,3.8,3.8,3.8c2.1,0,3.8-1.7,3.8-3.8
			C875.4,1044.6,873.7,1042.9,871.6,1042.9z"/>
		<path d="M935.2,1058.8c2.1,0,3.8-1.7,3.8-3.8c0-2.1-1.7-3.8-3.8-3.8c-2.1,0-3.8,1.7-3.8,3.8
			C931.4,1057.1,933.1,1058.8,935.2,1058.8z"/>
		<path d="M927.1,1055c0-2.1-1.7-3.8-3.8-3.8s-3.8,1.7-3.8,3.8c0,2.1,1.7,3.8,3.8,3.8S927.1,1057.1,927.1,1055z"/>
		<path d="M942.4,1048c2.1,0,3.8-1.7,3.8-3.8c0-2.1-1.7-3.8-3.8-3.8s-3.8,1.7-3.8,3.8C938.6,1046.3,940.3,1048,942.4,1048z"/>
		<path d="M934.8,1044.2c0-2.1-1.7-3.8-3.8-3.8c-2.1,0-3.8,1.7-3.8,3.8c0,2.1,1.7,3.8,3.8,3.8C933.1,1048,934.8,1046.3,934.8,1044.2
			z"/>
		<path d="M955.1,1055c0,2.1,1.7,3.8,3.8,3.8s3.8-1.7,3.8-3.8c0-2.1-1.7-3.8-3.8-3.8S955.1,1052.9,955.1,1055z"/>
		<path d="M947,1058.8c2.1,0,3.8-1.7,3.8-3.8c0-2.1-1.7-3.8-3.8-3.8c-2.1,0-3.8,1.7-3.8,3.8C943.2,1057.1,944.9,1058.8,947,1058.8z"
			/>
		<path d="M978.8,1055c0,2.1,1.7,3.8,3.8,3.8c2.1,0,3.8-1.7,3.8-3.8c0-2.1-1.7-3.8-3.8-3.8C980.5,1051.2,978.8,1052.9,978.8,1055z"
			/>
		<path d="M967,1055c0,2.1,1.7,3.8,3.8,3.8c2.1,0,3.8-1.7,3.8-3.8c0-2.1-1.7-3.8-3.8-3.8C968.7,1051.2,967,1052.9,967,1055z"/>
		<path d="M998.2,1041c-2.1,0-3.8,1.7-3.8,3.8s1.7,3.8,3.8,3.8s3.8-1.7,3.8-3.8S1000.3,1041,998.2,1041z"/>
		<path d="M990.6,1044.8c0-2.1-1.7-3.8-3.8-3.8c-2.1,0-3.8,1.7-3.8,3.8s1.7,3.8,3.8,3.8C988.9,1048.6,990.6,1046.9,990.6,1044.8z"/>
		<path d="M1002.5,1055c0,2.1,1.7,3.8,3.8,3.8c2.1,0,3.8-1.7,3.8-3.8c0-2.1-1.7-3.8-3.8-3.8
			C1004.2,1051.2,1002.5,1052.9,1002.5,1055z"/>
		<path d="M1012.5,1061.7c-2.1,0-3.8,1.7-3.8,3.8s1.7,3.8,3.8,3.8c2.1,0,3.8-1.7,3.8-3.8S1014.6,1061.7,1012.5,1061.7z"/>
		<path d="M994.5,1051.2c-2.1,0-3.8,1.7-3.8,3.8c0,2.1,1.7,3.8,3.8,3.8s3.8-1.7,3.8-3.8C998.3,1052.9,996.6,1051.2,994.5,1051.2z"/>
		<path d="M956.6,1090.2c-2.1,0-3.8,1.7-3.8,3.8s1.7,3.8,3.8,3.8c2.1,0,3.8-1.7,3.8-3.8S958.7,1090.2,956.6,1090.2z"/>
		<path d="M945.2,1090.2c-2.1,0-3.8,1.7-3.8,3.8s1.7,3.8,3.8,3.8c2.1,0,3.8-1.7,3.8-3.8S947.3,1090.2,945.2,1090.2z"/>
		<path d="M982.5,1094c0-2.1-1.7-3.8-3.8-3.8c-2.1,0-3.8,1.7-3.8,3.8s1.7,3.8,3.8,3.8C980.8,1097.8,982.5,1096.1,982.5,1094z"/>
		<path d="M967.3,1090.2c-2.1,0-3.8,1.7-3.8,3.8s1.7,3.8,3.8,3.8c2.1,0,3.8-1.7,3.8-3.8S969.4,1090.2,967.3,1090.2z"/>
		<path d="M956.6,1100.4c-2.1,0-3.8,1.7-3.8,3.8s1.7,3.8,3.8,3.8c2.1,0,3.8-1.7,3.8-3.8S958.7,1100.4,956.6,1100.4z"/>
		<path d="M967.3,1100.4c-2.1,0-3.8,1.7-3.8,3.8s1.7,3.8,3.8,3.8c2.1,0,3.8-1.7,3.8-3.8S969.4,1100.4,967.3,1100.4z"/>
		<path d="M956.6,1135.1c-2.1,0-3.8,1.7-3.8,3.8s1.7,3.8,3.8,3.8c2.1,0,3.8-1.7,3.8-3.8S958.7,1135.1,956.6,1135.1z"/>
		<path d="M967.3,1135.1c-2.1,0-3.8,1.7-3.8,3.8s1.7,3.8,3.8,3.8c2.1,0,3.8-1.7,3.8-3.8S969.4,1135.1,967.3,1135.1z"/>
		<path d="M956.6,1123.7c-2.1,0-3.8,1.7-3.8,3.8c0,2.1,1.7,3.8,3.8,3.8c2.1,0,3.8-1.7,3.8-3.8
			C960.4,1125.4,958.7,1123.7,956.6,1123.7z"/>
		<path d="M967.3,1123.7c-2.1,0-3.8,1.7-3.8,3.8c0,2.1,1.7,3.8,3.8,3.8c2.1,0,3.8-1.7,3.8-3.8
			C971.1,1125.4,969.4,1123.7,967.3,1123.7z"/>
		<path d="M997.5,1069.9c-1-2.6-3.9-3.9-6.5-2.9c-29.8,11.5-54.3,0.3-54.6,0.2c-2.5-1.2-5.5-0.1-6.7,2.3c-1.2,2.5-0.1,5.5,2.3,6.7
			c0.8,0.4,13,6.1,31.1,6.1c9.2,0,20-1.5,31.5-5.9C997.2,1075.4,998.5,1072.5,997.5,1069.9z"/>
		<path d="M937.7,967c0.2,2.6,2.4,4.6,5,4.6c2.8,0,5-2.2,5-5c0-8.2-14.4-17.3-35-17.3s-35,9.1-35,17.3c0,2.8,2.2,5,5,5
			c2.6,0,4.8-2,5-4.6c1.1-1.6,9.6-7.7,25-7.7S936.6,965.4,937.7,967z"/>
		<path d="M1039.4,967c0.2,2.6,2.4,4.6,5,4.6c2.8,0,5-2.2,5-5c0-8.2-14.4-17.3-35-17.3s-35,9.1-35,17.3c0,2.8,2.2,5,5,5
			c2.6,0,4.8-2,5-4.6c1.1-1.6,9.6-7.7,25-7.7S1038.4,965.4,1039.4,967z"/>

</g>
</svg>
